<?xml version="1.0" encoding="utf-8" standalone="no"?>
<!DOCTYPE svg PUBLIC "-//W3C//DTD SVG 1.1//EN"
  "http://www.w3.org/Graphics/SVG/1.1/DTD/svg11.dtd">
<svg xmlns:xlink="http://www.w3.org/1999/xlink" width="658.213625pt" height="611.248594pt" viewBox="0 0 658.213625 611.248594" xmlns="http://www.w3.org/2000/svg" version="1.1">
 <metadata>
  <rdf:RDF xmlns:dc="http://purl.org/dc/elements/1.1/" xmlns:cc="http://creativecommons.org/ns#" xmlns:rdf="http://www.w3.org/1999/02/22-rdf-syntax-ns#">
   <cc:Work>
    <dc:type rdf:resource="http://purl.org/dc/dcmitype/StillImage"/>
    <dc:date>2025-09-05T15:50:25.095105</dc:date>
    <dc:format>image/svg+xml</dc:format>
    <dc:creator>
     <cc:Agent>
      <dc:title>Matplotlib v3.9.4, https://matplotlib.org/</dc:title>
     </cc:Agent>
    </dc:creator>
   </cc:Work>
  </rdf:RDF>
 </metadata>
 <defs>
  <style type="text/css">*{stroke-linejoin: round; stroke-linecap: butt}</style>
 </defs>
 <g id="figure_1">
  <g id="patch_1">
   <path d="M 0 611.248594 
L 658.213625 611.248594 
L 658.213625 0 
L 0 0 
z
" style="fill: #ffffff"/>
  </g>
  <g id="axes_1">
   <g id="patch_2">
    <path d="M 149.889375 461.359219 
L 551.649375 461.359219 
L 551.649375 59.599219 
L 149.889375 59.599219 
z
" style="fill: #ffffff"/>
   </g>
   <g id="QuadMesh_1">
    <path d="M 149.889375 59.599219 
L 207.283661 59.599219 
L 207.283661 116.993504 
L 149.889375 116.993504 
L 149.889375 59.599219 
" clip-path="url(#pf5796e1ba5)" style="fill: none; stroke: #ffffff; stroke-width: 0.5"/>
    <path d="M 207.283661 59.599219 
L 264.677946 59.599219 
L 264.677946 116.993504 
L 207.283661 116.993504 
L 207.283661 59.599219 
" clip-path="url(#pf5796e1ba5)" style="fill: none; stroke: #ffffff; stroke-width: 0.5"/>
    <path d="M 264.677946 59.599219 
L 322.072232 59.599219 
L 322.072232 116.993504 
L 264.677946 116.993504 
L 264.677946 59.599219 
" clip-path="url(#pf5796e1ba5)" style="fill: none; stroke: #ffffff; stroke-width: 0.5"/>
    <path d="M 322.072232 59.599219 
L 379.466518 59.599219 
L 379.466518 116.993504 
L 322.072232 116.993504 
L 322.072232 59.599219 
" clip-path="url(#pf5796e1ba5)" style="fill: none; stroke: #ffffff; stroke-width: 0.5"/>
    <path d="M 379.466518 59.599219 
L 436.860804 59.599219 
L 436.860804 116.993504 
L 379.466518 116.993504 
L 379.466518 59.599219 
" clip-path="url(#pf5796e1ba5)" style="fill: none; stroke: #ffffff; stroke-width: 0.5"/>
    <path d="M 436.860804 59.599219 
L 494.255089 59.599219 
L 494.255089 116.993504 
L 436.860804 116.993504 
L 436.860804 59.599219 
" clip-path="url(#pf5796e1ba5)" style="fill: none; stroke: #ffffff; stroke-width: 0.5"/>
    <path d="M 494.255089 59.599219 
L 551.649375 59.599219 
L 551.649375 116.993504 
L 494.255089 116.993504 
L 494.255089 59.599219 
" clip-path="url(#pf5796e1ba5)" style="fill: none; stroke: #ffffff; stroke-width: 0.5"/>
    <path d="M 149.889375 116.993504 
L 207.283661 116.993504 
L 207.283661 174.38779 
L 149.889375 174.38779 
L 149.889375 116.993504 
" clip-path="url(#pf5796e1ba5)" style="fill: #4575b4; stroke: #ffffff; stroke-width: 0.5"/>
    <path d="M 207.283661 116.993504 
L 264.677946 116.993504 
L 264.677946 174.38779 
L 207.283661 174.38779 
L 207.283661 116.993504 
" clip-path="url(#pf5796e1ba5)" style="fill: none; stroke: #ffffff; stroke-width: 0.5"/>
    <path d="M 264.677946 116.993504 
L 322.072232 116.993504 
L 322.072232 174.38779 
L 264.677946 174.38779 
L 264.677946 116.993504 
" clip-path="url(#pf5796e1ba5)" style="fill: none; stroke: #ffffff; stroke-width: 0.5"/>
    <path d="M 322.072232 116.993504 
L 379.466518 116.993504 
L 379.466518 174.38779 
L 322.072232 174.38779 
L 322.072232 116.993504 
" clip-path="url(#pf5796e1ba5)" style="fill: none; stroke: #ffffff; stroke-width: 0.5"/>
    <path d="M 379.466518 116.993504 
L 436.860804 116.993504 
L 436.860804 174.38779 
L 379.466518 174.38779 
L 379.466518 116.993504 
" clip-path="url(#pf5796e1ba5)" style="fill: none; stroke: #ffffff; stroke-width: 0.5"/>
    <path d="M 436.860804 116.993504 
L 494.255089 116.993504 
L 494.255089 174.38779 
L 436.860804 174.38779 
L 436.860804 116.993504 
" clip-path="url(#pf5796e1ba5)" style="fill: none; stroke: #ffffff; stroke-width: 0.5"/>
    <path d="M 494.255089 116.993504 
L 551.649375 116.993504 
L 551.649375 174.38779 
L 494.255089 174.38779 
L 494.255089 116.993504 
" clip-path="url(#pf5796e1ba5)" style="fill: none; stroke: #ffffff; stroke-width: 0.5"/>
    <path d="M 149.889375 174.38779 
L 207.283661 174.38779 
L 207.283661 231.782076 
L 149.889375 231.782076 
L 149.889375 174.38779 
" clip-path="url(#pf5796e1ba5)" style="fill: #4575b4; stroke: #ffffff; stroke-width: 0.5"/>
    <path d="M 207.283661 174.38779 
L 264.677946 174.38779 
L 264.677946 231.782076 
L 207.283661 231.782076 
L 207.283661 174.38779 
" clip-path="url(#pf5796e1ba5)" style="fill: #4575b4; stroke: #ffffff; stroke-width: 0.5"/>
    <path d="M 264.677946 174.38779 
L 322.072232 174.38779 
L 322.072232 231.782076 
L 264.677946 231.782076 
L 264.677946 174.38779 
" clip-path="url(#pf5796e1ba5)" style="fill: none; stroke: #ffffff; stroke-width: 0.5"/>
    <path d="M 322.072232 174.38779 
L 379.466518 174.38779 
L 379.466518 231.782076 
L 322.072232 231.782076 
L 322.072232 174.38779 
" clip-path="url(#pf5796e1ba5)" style="fill: none; stroke: #ffffff; stroke-width: 0.5"/>
    <path d="M 379.466518 174.38779 
L 436.860804 174.38779 
L 436.860804 231.782076 
L 379.466518 231.782076 
L 379.466518 174.38779 
" clip-path="url(#pf5796e1ba5)" style="fill: none; stroke: #ffffff; stroke-width: 0.5"/>
    <path d="M 436.860804 174.38779 
L 494.255089 174.38779 
L 494.255089 231.782076 
L 436.860804 231.782076 
L 436.860804 174.38779 
" clip-path="url(#pf5796e1ba5)" style="fill: none; stroke: #ffffff; stroke-width: 0.5"/>
    <path d="M 494.255089 174.38779 
L 551.649375 174.38779 
L 551.649375 231.782076 
L 494.255089 231.782076 
L 494.255089 174.38779 
" clip-path="url(#pf5796e1ba5)" style="fill: none; stroke: #ffffff; stroke-width: 0.5"/>
    <path d="M 149.889375 231.782076 
L 207.283661 231.782076 
L 207.283661 289.176362 
L 149.889375 289.176362 
L 149.889375 231.782076 
" clip-path="url(#pf5796e1ba5)" style="fill: #4575b4; stroke: #ffffff; stroke-width: 0.5"/>
    <path d="M 207.283661 231.782076 
L 264.677946 231.782076 
L 264.677946 289.176362 
L 207.283661 289.176362 
L 207.283661 231.782076 
" clip-path="url(#pf5796e1ba5)" style="fill: #4575b4; stroke: #ffffff; stroke-width: 0.5"/>
    <path d="M 264.677946 231.782076 
L 322.072232 231.782076 
L 322.072232 289.176362 
L 264.677946 289.176362 
L 264.677946 231.782076 
" clip-path="url(#pf5796e1ba5)" style="fill: #4575b4; stroke: #ffffff; stroke-width: 0.5"/>
    <path d="M 322.072232 231.782076 
L 379.466518 231.782076 
L 379.466518 289.176362 
L 322.072232 289.176362 
L 322.072232 231.782076 
" clip-path="url(#pf5796e1ba5)" style="fill: none; stroke: #ffffff; stroke-width: 0.5"/>
    <path d="M 379.466518 231.782076 
L 436.860804 231.782076 
L 436.860804 289.176362 
L 379.466518 289.176362 
L 379.466518 231.782076 
" clip-path="url(#pf5796e1ba5)" style="fill: none; stroke: #ffffff; stroke-width: 0.5"/>
    <path d="M 436.860804 231.782076 
L 494.255089 231.782076 
L 494.255089 289.176362 
L 436.860804 289.176362 
L 436.860804 231.782076 
" clip-path="url(#pf5796e1ba5)" style="fill: none; stroke: #ffffff; stroke-width: 0.5"/>
    <path d="M 494.255089 231.782076 
L 551.649375 231.782076 
L 551.649375 289.176362 
L 494.255089 289.176362 
L 494.255089 231.782076 
" clip-path="url(#pf5796e1ba5)" style="fill: none; stroke: #ffffff; stroke-width: 0.5"/>
    <path d="M 149.889375 289.176362 
L 207.283661 289.176362 
L 207.283661 346.570647 
L 149.889375 346.570647 
L 149.889375 289.176362 
" clip-path="url(#pf5796e1ba5)" style="fill: #4575b4; stroke: #ffffff; stroke-width: 0.5"/>
    <path d="M 207.283661 289.176362 
L 264.677946 289.176362 
L 264.677946 346.570647 
L 207.283661 346.570647 
L 207.283661 289.176362 
" clip-path="url(#pf5796e1ba5)" style="fill: #4575b4; stroke: #ffffff; stroke-width: 0.5"/>
    <path d="M 264.677946 289.176362 
L 322.072232 289.176362 
L 322.072232 346.570647 
L 264.677946 346.570647 
L 264.677946 289.176362 
" clip-path="url(#pf5796e1ba5)" style="fill: #4575b4; stroke: #ffffff; stroke-width: 0.5"/>
    <path d="M 322.072232 289.176362 
L 379.466518 289.176362 
L 379.466518 346.570647 
L 322.072232 346.570647 
L 322.072232 289.176362 
" clip-path="url(#pf5796e1ba5)" style="fill: #4575b4; stroke: #ffffff; stroke-width: 0.5"/>
    <path d="M 379.466518 289.176362 
L 436.860804 289.176362 
L 436.860804 346.570647 
L 379.466518 346.570647 
L 379.466518 289.176362 
" clip-path="url(#pf5796e1ba5)" style="fill: none; stroke: #ffffff; stroke-width: 0.5"/>
    <path d="M 436.860804 289.176362 
L 494.255089 289.176362 
L 494.255089 346.570647 
L 436.860804 346.570647 
L 436.860804 289.176362 
" clip-path="url(#pf5796e1ba5)" style="fill: none; stroke: #ffffff; stroke-width: 0.5"/>
    <path d="M 494.255089 289.176362 
L 551.649375 289.176362 
L 551.649375 346.570647 
L 494.255089 346.570647 
L 494.255089 289.176362 
" clip-path="url(#pf5796e1ba5)" style="fill: none; stroke: #ffffff; stroke-width: 0.5"/>
    <path d="M 149.889375 346.570647 
L 207.283661 346.570647 
L 207.283661 403.964933 
L 149.889375 403.964933 
L 149.889375 346.570647 
" clip-path="url(#pf5796e1ba5)" style="fill: #fc8d59; stroke: #ffffff; stroke-width: 0.5"/>
    <path d="M 207.283661 346.570647 
L 264.677946 346.570647 
L 264.677946 403.964933 
L 207.283661 403.964933 
L 207.283661 346.570647 
" clip-path="url(#pf5796e1ba5)" style="fill: #4575b4; stroke: #ffffff; stroke-width: 0.5"/>
    <path d="M 264.677946 346.570647 
L 322.072232 346.570647 
L 322.072232 403.964933 
L 264.677946 403.964933 
L 264.677946 346.570647 
" clip-path="url(#pf5796e1ba5)" style="fill: #4575b4; stroke: #ffffff; stroke-width: 0.5"/>
    <path d="M 322.072232 346.570647 
L 379.466518 346.570647 
L 379.466518 403.964933 
L 322.072232 403.964933 
L 322.072232 346.570647 
" clip-path="url(#pf5796e1ba5)" style="fill: #4575b4; stroke: #ffffff; stroke-width: 0.5"/>
    <path d="M 379.466518 346.570647 
L 436.860804 346.570647 
L 436.860804 403.964933 
L 379.466518 403.964933 
L 379.466518 346.570647 
" clip-path="url(#pf5796e1ba5)" style="fill: #4575b4; stroke: #ffffff; stroke-width: 0.5"/>
    <path d="M 436.860804 346.570647 
L 494.255089 346.570647 
L 494.255089 403.964933 
L 436.860804 403.964933 
L 436.860804 346.570647 
" clip-path="url(#pf5796e1ba5)" style="fill: none; stroke: #ffffff; stroke-width: 0.5"/>
    <path d="M 494.255089 346.570647 
L 551.649375 346.570647 
L 551.649375 403.964933 
L 494.255089 403.964933 
L 494.255089 346.570647 
" clip-path="url(#pf5796e1ba5)" style="fill: none; stroke: #ffffff; stroke-width: 0.5"/>
    <path d="M 149.889375 403.964933 
L 207.283661 403.964933 
L 207.283661 461.359219 
L 149.889375 461.359219 
L 149.889375 403.964933 
" clip-path="url(#pf5796e1ba5)" style="fill: #d73027; stroke: #ffffff; stroke-width: 0.5"/>
    <path d="M 207.283661 403.964933 
L 264.677946 403.964933 
L 264.677946 461.359219 
L 207.283661 461.359219 
L 207.283661 403.964933 
" clip-path="url(#pf5796e1ba5)" style="fill: #d73027; stroke: #ffffff; stroke-width: 0.5"/>
    <path d="M 264.677946 403.964933 
L 322.072232 403.964933 
L 322.072232 461.359219 
L 264.677946 461.359219 
L 264.677946 403.964933 
" clip-path="url(#pf5796e1ba5)" style="fill: #d73027; stroke: #ffffff; stroke-width: 0.5"/>
    <path d="M 322.072232 403.964933 
L 379.466518 403.964933 
L 379.466518 461.359219 
L 322.072232 461.359219 
L 322.072232 403.964933 
" clip-path="url(#pf5796e1ba5)" style="fill: #d73027; stroke: #ffffff; stroke-width: 0.5"/>
    <path d="M 379.466518 403.964933 
L 436.860804 403.964933 
L 436.860804 461.359219 
L 379.466518 461.359219 
L 379.466518 403.964933 
" clip-path="url(#pf5796e1ba5)" style="fill: #d73027; stroke: #ffffff; stroke-width: 0.5"/>
    <path d="M 436.860804 403.964933 
L 494.255089 403.964933 
L 494.255089 461.359219 
L 436.860804 461.359219 
L 436.860804 403.964933 
" clip-path="url(#pf5796e1ba5)" style="fill: #fc8d59; stroke: #ffffff; stroke-width: 0.5"/>
    <path d="M 494.255089 403.964933 
L 551.649375 403.964933 
L 551.649375 461.359219 
L 494.255089 461.359219 
L 494.255089 403.964933 
" clip-path="url(#pf5796e1ba5)" style="fill: none; stroke: #ffffff; stroke-width: 0.5"/>
   </g>
   <g id="matplotlib.axis_1">
    <g id="xtick_1">
     <g id="line2d_1">
      <defs>
       <path id="m7fb34a4a3c" d="M 0 0 
L 0 3.5 
" style="stroke: #000000; stroke-width: 0.8"/>
      </defs>
      <g>
       <use xlink:href="#m7fb34a4a3c" x="178.586518" y="461.359219" style="stroke: #000000; stroke-width: 0.8"/>
      </g>
     </g>
     <g id="text_1">
      <!-- Sonar-Reasoning-Pro + WL -->
      <g transform="translate(180.794018 575.227969) rotate(-90) scale(0.08 -0.08)">
       <defs>
        <path id="DejaVuSans-53" d="M 3425 4513 
L 3425 3897 
Q 3066 4069 2747 4153 
Q 2428 4238 2131 4238 
Q 1616 4238 1336 4038 
Q 1056 3838 1056 3469 
Q 1056 3159 1242 3001 
Q 1428 2844 1947 2747 
L 2328 2669 
Q 3034 2534 3370 2195 
Q 3706 1856 3706 1288 
Q 3706 609 3251 259 
Q 2797 -91 1919 -91 
Q 1588 -91 1214 -16 
Q 841 59 441 206 
L 441 856 
Q 825 641 1194 531 
Q 1563 422 1919 422 
Q 2459 422 2753 634 
Q 3047 847 3047 1241 
Q 3047 1584 2836 1778 
Q 2625 1972 2144 2069 
L 1759 2144 
Q 1053 2284 737 2584 
Q 422 2884 422 3419 
Q 422 4038 858 4394 
Q 1294 4750 2059 4750 
Q 2388 4750 2728 4690 
Q 3069 4631 3425 4513 
z
" transform="scale(0.015625)"/>
        <path id="DejaVuSans-6f" d="M 1959 3097 
Q 1497 3097 1228 2736 
Q 959 2375 959 1747 
Q 959 1119 1226 758 
Q 1494 397 1959 397 
Q 2419 397 2687 759 
Q 2956 1122 2956 1747 
Q 2956 2369 2687 2733 
Q 2419 3097 1959 3097 
z
M 1959 3584 
Q 2709 3584 3137 3096 
Q 3566 2609 3566 1747 
Q 3566 888 3137 398 
Q 2709 -91 1959 -91 
Q 1206 -91 779 398 
Q 353 888 353 1747 
Q 353 2609 779 3096 
Q 1206 3584 1959 3584 
z
" transform="scale(0.015625)"/>
        <path id="DejaVuSans-6e" d="M 3513 2113 
L 3513 0 
L 2938 0 
L 2938 2094 
Q 2938 2591 2744 2837 
Q 2550 3084 2163 3084 
Q 1697 3084 1428 2787 
Q 1159 2491 1159 1978 
L 1159 0 
L 581 0 
L 581 3500 
L 1159 3500 
L 1159 2956 
Q 1366 3272 1645 3428 
Q 1925 3584 2291 3584 
Q 2894 3584 3203 3211 
Q 3513 2838 3513 2113 
z
" transform="scale(0.015625)"/>
        <path id="DejaVuSans-61" d="M 2194 1759 
Q 1497 1759 1228 1600 
Q 959 1441 959 1056 
Q 959 750 1161 570 
Q 1363 391 1709 391 
Q 2188 391 2477 730 
Q 2766 1069 2766 1631 
L 2766 1759 
L 2194 1759 
z
M 3341 1997 
L 3341 0 
L 2766 0 
L 2766 531 
Q 2569 213 2275 61 
Q 1981 -91 1556 -91 
Q 1019 -91 701 211 
Q 384 513 384 1019 
Q 384 1609 779 1909 
Q 1175 2209 1959 2209 
L 2766 2209 
L 2766 2266 
Q 2766 2663 2505 2880 
Q 2244 3097 1772 3097 
Q 1472 3097 1187 3025 
Q 903 2953 641 2809 
L 641 3341 
Q 956 3463 1253 3523 
Q 1550 3584 1831 3584 
Q 2591 3584 2966 3190 
Q 3341 2797 3341 1997 
z
" transform="scale(0.015625)"/>
        <path id="DejaVuSans-72" d="M 2631 2963 
Q 2534 3019 2420 3045 
Q 2306 3072 2169 3072 
Q 1681 3072 1420 2755 
Q 1159 2438 1159 1844 
L 1159 0 
L 581 0 
L 581 3500 
L 1159 3500 
L 1159 2956 
Q 1341 3275 1631 3429 
Q 1922 3584 2338 3584 
Q 2397 3584 2469 3576 
Q 2541 3569 2628 3553 
L 2631 2963 
z
" transform="scale(0.015625)"/>
        <path id="DejaVuSans-2d" d="M 313 2009 
L 1997 2009 
L 1997 1497 
L 313 1497 
L 313 2009 
z
" transform="scale(0.015625)"/>
        <path id="DejaVuSans-52" d="M 2841 2188 
Q 3044 2119 3236 1894 
Q 3428 1669 3622 1275 
L 4263 0 
L 3584 0 
L 2988 1197 
Q 2756 1666 2539 1819 
Q 2322 1972 1947 1972 
L 1259 1972 
L 1259 0 
L 628 0 
L 628 4666 
L 2053 4666 
Q 2853 4666 3247 4331 
Q 3641 3997 3641 3322 
Q 3641 2881 3436 2590 
Q 3231 2300 2841 2188 
z
M 1259 4147 
L 1259 2491 
L 2053 2491 
Q 2509 2491 2742 2702 
Q 2975 2913 2975 3322 
Q 2975 3731 2742 3939 
Q 2509 4147 2053 4147 
L 1259 4147 
z
" transform="scale(0.015625)"/>
        <path id="DejaVuSans-65" d="M 3597 1894 
L 3597 1613 
L 953 1613 
Q 991 1019 1311 708 
Q 1631 397 2203 397 
Q 2534 397 2845 478 
Q 3156 559 3463 722 
L 3463 178 
Q 3153 47 2828 -22 
Q 2503 -91 2169 -91 
Q 1331 -91 842 396 
Q 353 884 353 1716 
Q 353 2575 817 3079 
Q 1281 3584 2069 3584 
Q 2775 3584 3186 3129 
Q 3597 2675 3597 1894 
z
M 3022 2063 
Q 3016 2534 2758 2815 
Q 2500 3097 2075 3097 
Q 1594 3097 1305 2825 
Q 1016 2553 972 2059 
L 3022 2063 
z
" transform="scale(0.015625)"/>
        <path id="DejaVuSans-73" d="M 2834 3397 
L 2834 2853 
Q 2591 2978 2328 3040 
Q 2066 3103 1784 3103 
Q 1356 3103 1142 2972 
Q 928 2841 928 2578 
Q 928 2378 1081 2264 
Q 1234 2150 1697 2047 
L 1894 2003 
Q 2506 1872 2764 1633 
Q 3022 1394 3022 966 
Q 3022 478 2636 193 
Q 2250 -91 1575 -91 
Q 1294 -91 989 -36 
Q 684 19 347 128 
L 347 722 
Q 666 556 975 473 
Q 1284 391 1588 391 
Q 1994 391 2212 530 
Q 2431 669 2431 922 
Q 2431 1156 2273 1281 
Q 2116 1406 1581 1522 
L 1381 1569 
Q 847 1681 609 1914 
Q 372 2147 372 2553 
Q 372 3047 722 3315 
Q 1072 3584 1716 3584 
Q 2034 3584 2315 3537 
Q 2597 3491 2834 3397 
z
" transform="scale(0.015625)"/>
        <path id="DejaVuSans-69" d="M 603 3500 
L 1178 3500 
L 1178 0 
L 603 0 
L 603 3500 
z
M 603 4863 
L 1178 4863 
L 1178 4134 
L 603 4134 
L 603 4863 
z
" transform="scale(0.015625)"/>
        <path id="DejaVuSans-67" d="M 2906 1791 
Q 2906 2416 2648 2759 
Q 2391 3103 1925 3103 
Q 1463 3103 1205 2759 
Q 947 2416 947 1791 
Q 947 1169 1205 825 
Q 1463 481 1925 481 
Q 2391 481 2648 825 
Q 2906 1169 2906 1791 
z
M 3481 434 
Q 3481 -459 3084 -895 
Q 2688 -1331 1869 -1331 
Q 1566 -1331 1297 -1286 
Q 1028 -1241 775 -1147 
L 775 -588 
Q 1028 -725 1275 -790 
Q 1522 -856 1778 -856 
Q 2344 -856 2625 -561 
Q 2906 -266 2906 331 
L 2906 616 
Q 2728 306 2450 153 
Q 2172 0 1784 0 
Q 1141 0 747 490 
Q 353 981 353 1791 
Q 353 2603 747 3093 
Q 1141 3584 1784 3584 
Q 2172 3584 2450 3431 
Q 2728 3278 2906 2969 
L 2906 3500 
L 3481 3500 
L 3481 434 
z
" transform="scale(0.015625)"/>
        <path id="DejaVuSans-50" d="M 1259 4147 
L 1259 2394 
L 2053 2394 
Q 2494 2394 2734 2622 
Q 2975 2850 2975 3272 
Q 2975 3691 2734 3919 
Q 2494 4147 2053 4147 
L 1259 4147 
z
M 628 4666 
L 2053 4666 
Q 2838 4666 3239 4311 
Q 3641 3956 3641 3272 
Q 3641 2581 3239 2228 
Q 2838 1875 2053 1875 
L 1259 1875 
L 1259 0 
L 628 0 
L 628 4666 
z
" transform="scale(0.015625)"/>
        <path id="DejaVuSans-20" transform="scale(0.015625)"/>
        <path id="DejaVuSans-2b" d="M 2944 4013 
L 2944 2272 
L 4684 2272 
L 4684 1741 
L 2944 1741 
L 2944 0 
L 2419 0 
L 2419 1741 
L 678 1741 
L 678 2272 
L 2419 2272 
L 2419 4013 
L 2944 4013 
z
" transform="scale(0.015625)"/>
        <path id="DejaVuSans-57" d="M 213 4666 
L 850 4666 
L 1831 722 
L 2809 4666 
L 3519 4666 
L 4500 722 
L 5478 4666 
L 6119 4666 
L 4947 0 
L 4153 0 
L 3169 4050 
L 2175 0 
L 1381 0 
L 213 4666 
z
" transform="scale(0.015625)"/>
        <path id="DejaVuSans-4c" d="M 628 4666 
L 1259 4666 
L 1259 531 
L 3531 531 
L 3531 0 
L 628 0 
L 628 4666 
z
" transform="scale(0.015625)"/>
       </defs>
       <use xlink:href="#DejaVuSans-53"/>
       <use xlink:href="#DejaVuSans-6f" x="63.476562"/>
       <use xlink:href="#DejaVuSans-6e" x="124.658203"/>
       <use xlink:href="#DejaVuSans-61" x="188.037109"/>
       <use xlink:href="#DejaVuSans-72" x="249.316406"/>
       <use xlink:href="#DejaVuSans-2d" x="284.054688"/>
       <use xlink:href="#DejaVuSans-52" x="320.138672"/>
       <use xlink:href="#DejaVuSans-65" x="385.121094"/>
       <use xlink:href="#DejaVuSans-61" x="446.644531"/>
       <use xlink:href="#DejaVuSans-73" x="507.923828"/>
       <use xlink:href="#DejaVuSans-6f" x="560.023438"/>
       <use xlink:href="#DejaVuSans-6e" x="621.205078"/>
       <use xlink:href="#DejaVuSans-69" x="684.583984"/>
       <use xlink:href="#DejaVuSans-6e" x="712.367188"/>
       <use xlink:href="#DejaVuSans-67" x="775.746094"/>
       <use xlink:href="#DejaVuSans-2d" x="839.222656"/>
       <use xlink:href="#DejaVuSans-50" x="875.306641"/>
       <use xlink:href="#DejaVuSans-72" x="933.859375"/>
       <use xlink:href="#DejaVuSans-6f" x="972.722656"/>
       <use xlink:href="#DejaVuSans-20" x="1033.904297"/>
       <use xlink:href="#DejaVuSans-2b" x="1065.691406"/>
       <use xlink:href="#DejaVuSans-20" x="1149.480469"/>
       <use xlink:href="#DejaVuSans-57" x="1181.267578"/>
       <use xlink:href="#DejaVuSans-4c" x="1280.144531"/>
      </g>
     </g>
    </g>
    <g id="xtick_2">
     <g id="line2d_2">
      <g>
       <use xlink:href="#m7fb34a4a3c" x="235.980804" y="461.359219" style="stroke: #000000; stroke-width: 0.8"/>
      </g>
     </g>
     <g id="text_2">
      <!-- Sonar-Pro + WL -->
      <g transform="translate(238.188304 530.814219) rotate(-90) scale(0.08 -0.08)">
       <use xlink:href="#DejaVuSans-53"/>
       <use xlink:href="#DejaVuSans-6f" x="63.476562"/>
       <use xlink:href="#DejaVuSans-6e" x="124.658203"/>
       <use xlink:href="#DejaVuSans-61" x="188.037109"/>
       <use xlink:href="#DejaVuSans-72" x="249.316406"/>
       <use xlink:href="#DejaVuSans-2d" x="284.054688"/>
       <use xlink:href="#DejaVuSans-50" x="320.138672"/>
       <use xlink:href="#DejaVuSans-72" x="378.691406"/>
       <use xlink:href="#DejaVuSans-6f" x="417.554688"/>
       <use xlink:href="#DejaVuSans-20" x="478.736328"/>
       <use xlink:href="#DejaVuSans-2b" x="510.523438"/>
       <use xlink:href="#DejaVuSans-20" x="594.3125"/>
       <use xlink:href="#DejaVuSans-57" x="626.099609"/>
       <use xlink:href="#DejaVuSans-4c" x="724.976562"/>
      </g>
     </g>
    </g>
    <g id="xtick_3">
     <g id="line2d_3">
      <g>
       <use xlink:href="#m7fb34a4a3c" x="293.375089" y="461.359219" style="stroke: #000000; stroke-width: 0.8"/>
      </g>
     </g>
     <g id="text_3">
      <!-- OpenEvidence (Assumed WL) -->
      <g transform="translate(295.582589 586.499219) rotate(-90) scale(0.08 -0.08)">
       <defs>
        <path id="DejaVuSans-4f" d="M 2522 4238 
Q 1834 4238 1429 3725 
Q 1025 3213 1025 2328 
Q 1025 1447 1429 934 
Q 1834 422 2522 422 
Q 3209 422 3611 934 
Q 4013 1447 4013 2328 
Q 4013 3213 3611 3725 
Q 3209 4238 2522 4238 
z
M 2522 4750 
Q 3503 4750 4090 4092 
Q 4678 3434 4678 2328 
Q 4678 1225 4090 567 
Q 3503 -91 2522 -91 
Q 1538 -91 948 565 
Q 359 1222 359 2328 
Q 359 3434 948 4092 
Q 1538 4750 2522 4750 
z
" transform="scale(0.015625)"/>
        <path id="DejaVuSans-70" d="M 1159 525 
L 1159 -1331 
L 581 -1331 
L 581 3500 
L 1159 3500 
L 1159 2969 
Q 1341 3281 1617 3432 
Q 1894 3584 2278 3584 
Q 2916 3584 3314 3078 
Q 3713 2572 3713 1747 
Q 3713 922 3314 415 
Q 2916 -91 2278 -91 
Q 1894 -91 1617 61 
Q 1341 213 1159 525 
z
M 3116 1747 
Q 3116 2381 2855 2742 
Q 2594 3103 2138 3103 
Q 1681 3103 1420 2742 
Q 1159 2381 1159 1747 
Q 1159 1113 1420 752 
Q 1681 391 2138 391 
Q 2594 391 2855 752 
Q 3116 1113 3116 1747 
z
" transform="scale(0.015625)"/>
        <path id="DejaVuSans-45" d="M 628 4666 
L 3578 4666 
L 3578 4134 
L 1259 4134 
L 1259 2753 
L 3481 2753 
L 3481 2222 
L 1259 2222 
L 1259 531 
L 3634 531 
L 3634 0 
L 628 0 
L 628 4666 
z
" transform="scale(0.015625)"/>
        <path id="DejaVuSans-76" d="M 191 3500 
L 800 3500 
L 1894 563 
L 2988 3500 
L 3597 3500 
L 2284 0 
L 1503 0 
L 191 3500 
z
" transform="scale(0.015625)"/>
        <path id="DejaVuSans-64" d="M 2906 2969 
L 2906 4863 
L 3481 4863 
L 3481 0 
L 2906 0 
L 2906 525 
Q 2725 213 2448 61 
Q 2172 -91 1784 -91 
Q 1150 -91 751 415 
Q 353 922 353 1747 
Q 353 2572 751 3078 
Q 1150 3584 1784 3584 
Q 2172 3584 2448 3432 
Q 2725 3281 2906 2969 
z
M 947 1747 
Q 947 1113 1208 752 
Q 1469 391 1925 391 
Q 2381 391 2643 752 
Q 2906 1113 2906 1747 
Q 2906 2381 2643 2742 
Q 2381 3103 1925 3103 
Q 1469 3103 1208 2742 
Q 947 2381 947 1747 
z
" transform="scale(0.015625)"/>
        <path id="DejaVuSans-63" d="M 3122 3366 
L 3122 2828 
Q 2878 2963 2633 3030 
Q 2388 3097 2138 3097 
Q 1578 3097 1268 2742 
Q 959 2388 959 1747 
Q 959 1106 1268 751 
Q 1578 397 2138 397 
Q 2388 397 2633 464 
Q 2878 531 3122 666 
L 3122 134 
Q 2881 22 2623 -34 
Q 2366 -91 2075 -91 
Q 1284 -91 818 406 
Q 353 903 353 1747 
Q 353 2603 823 3093 
Q 1294 3584 2113 3584 
Q 2378 3584 2631 3529 
Q 2884 3475 3122 3366 
z
" transform="scale(0.015625)"/>
        <path id="DejaVuSans-28" d="M 1984 4856 
Q 1566 4138 1362 3434 
Q 1159 2731 1159 2009 
Q 1159 1288 1364 580 
Q 1569 -128 1984 -844 
L 1484 -844 
Q 1016 -109 783 600 
Q 550 1309 550 2009 
Q 550 2706 781 3412 
Q 1013 4119 1484 4856 
L 1984 4856 
z
" transform="scale(0.015625)"/>
        <path id="DejaVuSans-41" d="M 2188 4044 
L 1331 1722 
L 3047 1722 
L 2188 4044 
z
M 1831 4666 
L 2547 4666 
L 4325 0 
L 3669 0 
L 3244 1197 
L 1141 1197 
L 716 0 
L 50 0 
L 1831 4666 
z
" transform="scale(0.015625)"/>
        <path id="DejaVuSans-75" d="M 544 1381 
L 544 3500 
L 1119 3500 
L 1119 1403 
Q 1119 906 1312 657 
Q 1506 409 1894 409 
Q 2359 409 2629 706 
Q 2900 1003 2900 1516 
L 2900 3500 
L 3475 3500 
L 3475 0 
L 2900 0 
L 2900 538 
Q 2691 219 2414 64 
Q 2138 -91 1772 -91 
Q 1169 -91 856 284 
Q 544 659 544 1381 
z
M 1991 3584 
L 1991 3584 
z
" transform="scale(0.015625)"/>
        <path id="DejaVuSans-6d" d="M 3328 2828 
Q 3544 3216 3844 3400 
Q 4144 3584 4550 3584 
Q 5097 3584 5394 3201 
Q 5691 2819 5691 2113 
L 5691 0 
L 5113 0 
L 5113 2094 
Q 5113 2597 4934 2840 
Q 4756 3084 4391 3084 
Q 3944 3084 3684 2787 
Q 3425 2491 3425 1978 
L 3425 0 
L 2847 0 
L 2847 2094 
Q 2847 2600 2669 2842 
Q 2491 3084 2119 3084 
Q 1678 3084 1418 2786 
Q 1159 2488 1159 1978 
L 1159 0 
L 581 0 
L 581 3500 
L 1159 3500 
L 1159 2956 
Q 1356 3278 1631 3431 
Q 1906 3584 2284 3584 
Q 2666 3584 2933 3390 
Q 3200 3197 3328 2828 
z
" transform="scale(0.015625)"/>
        <path id="DejaVuSans-29" d="M 513 4856 
L 1013 4856 
Q 1481 4119 1714 3412 
Q 1947 2706 1947 2009 
Q 1947 1309 1714 600 
Q 1481 -109 1013 -844 
L 513 -844 
Q 928 -128 1133 580 
Q 1338 1288 1338 2009 
Q 1338 2731 1133 3434 
Q 928 4138 513 4856 
z
" transform="scale(0.015625)"/>
       </defs>
       <use xlink:href="#DejaVuSans-4f"/>
       <use xlink:href="#DejaVuSans-70" x="78.710938"/>
       <use xlink:href="#DejaVuSans-65" x="142.1875"/>
       <use xlink:href="#DejaVuSans-6e" x="203.710938"/>
       <use xlink:href="#DejaVuSans-45" x="267.089844"/>
       <use xlink:href="#DejaVuSans-76" x="330.273438"/>
       <use xlink:href="#DejaVuSans-69" x="389.453125"/>
       <use xlink:href="#DejaVuSans-64" x="417.236328"/>
       <use xlink:href="#DejaVuSans-65" x="480.712891"/>
       <use xlink:href="#DejaVuSans-6e" x="542.236328"/>
       <use xlink:href="#DejaVuSans-63" x="605.615234"/>
       <use xlink:href="#DejaVuSans-65" x="660.595703"/>
       <use xlink:href="#DejaVuSans-20" x="722.119141"/>
       <use xlink:href="#DejaVuSans-28" x="753.90625"/>
       <use xlink:href="#DejaVuSans-41" x="792.919922"/>
       <use xlink:href="#DejaVuSans-73" x="861.328125"/>
       <use xlink:href="#DejaVuSans-73" x="913.427734"/>
       <use xlink:href="#DejaVuSans-75" x="965.527344"/>
       <use xlink:href="#DejaVuSans-6d" x="1028.90625"/>
       <use xlink:href="#DejaVuSans-65" x="1126.318359"/>
       <use xlink:href="#DejaVuSans-64" x="1187.841797"/>
       <use xlink:href="#DejaVuSans-20" x="1251.318359"/>
       <use xlink:href="#DejaVuSans-57" x="1283.105469"/>
       <use xlink:href="#DejaVuSans-4c" x="1381.982422"/>
       <use xlink:href="#DejaVuSans-29" x="1437.695312"/>
      </g>
     </g>
    </g>
    <g id="xtick_4">
     <g id="line2d_4">
      <g>
       <use xlink:href="#m7fb34a4a3c" x="350.769375" y="461.359219" style="stroke: #000000; stroke-width: 0.8"/>
      </g>
     </g>
     <g id="text_4">
      <!-- Sonar-Pro -->
      <g transform="translate(352.976875 506.657969) rotate(-90) scale(0.08 -0.08)">
       <use xlink:href="#DejaVuSans-53"/>
       <use xlink:href="#DejaVuSans-6f" x="63.476562"/>
       <use xlink:href="#DejaVuSans-6e" x="124.658203"/>
       <use xlink:href="#DejaVuSans-61" x="188.037109"/>
       <use xlink:href="#DejaVuSans-72" x="249.316406"/>
       <use xlink:href="#DejaVuSans-2d" x="284.054688"/>
       <use xlink:href="#DejaVuSans-50" x="320.138672"/>
       <use xlink:href="#DejaVuSans-72" x="378.691406"/>
       <use xlink:href="#DejaVuSans-6f" x="417.554688"/>
      </g>
     </g>
    </g>
    <g id="xtick_5">
     <g id="line2d_5">
      <g>
       <use xlink:href="#m7fb34a4a3c" x="408.163661" y="461.359219" style="stroke: #000000; stroke-width: 0.8"/>
      </g>
     </g>
     <g id="text_5">
      <!-- Sonar-Reasoning-Pro -->
      <g transform="translate(410.371161 551.071719) rotate(-90) scale(0.08 -0.08)">
       <use xlink:href="#DejaVuSans-53"/>
       <use xlink:href="#DejaVuSans-6f" x="63.476562"/>
       <use xlink:href="#DejaVuSans-6e" x="124.658203"/>
       <use xlink:href="#DejaVuSans-61" x="188.037109"/>
       <use xlink:href="#DejaVuSans-72" x="249.316406"/>
       <use xlink:href="#DejaVuSans-2d" x="284.054688"/>
       <use xlink:href="#DejaVuSans-52" x="320.138672"/>
       <use xlink:href="#DejaVuSans-65" x="385.121094"/>
       <use xlink:href="#DejaVuSans-61" x="446.644531"/>
       <use xlink:href="#DejaVuSans-73" x="507.923828"/>
       <use xlink:href="#DejaVuSans-6f" x="560.023438"/>
       <use xlink:href="#DejaVuSans-6e" x="621.205078"/>
       <use xlink:href="#DejaVuSans-69" x="684.583984"/>
       <use xlink:href="#DejaVuSans-6e" x="712.367188"/>
       <use xlink:href="#DejaVuSans-67" x="775.746094"/>
       <use xlink:href="#DejaVuSans-2d" x="839.222656"/>
       <use xlink:href="#DejaVuSans-50" x="875.306641"/>
       <use xlink:href="#DejaVuSans-72" x="933.859375"/>
       <use xlink:href="#DejaVuSans-6f" x="972.722656"/>
      </g>
     </g>
    </g>
    <g id="xtick_6">
     <g id="line2d_6">
      <g>
       <use xlink:href="#m7fb34a4a3c" x="465.557946" y="461.359219" style="stroke: #000000; stroke-width: 0.8"/>
      </g>
     </g>
     <g id="text_6">
      <!-- Sonar + WL -->
      <g transform="translate(467.765446 515.750469) rotate(-90) scale(0.08 -0.08)">
       <use xlink:href="#DejaVuSans-53"/>
       <use xlink:href="#DejaVuSans-6f" x="63.476562"/>
       <use xlink:href="#DejaVuSans-6e" x="124.658203"/>
       <use xlink:href="#DejaVuSans-61" x="188.037109"/>
       <use xlink:href="#DejaVuSans-72" x="249.316406"/>
       <use xlink:href="#DejaVuSans-20" x="290.429688"/>
       <use xlink:href="#DejaVuSans-2b" x="322.216797"/>
       <use xlink:href="#DejaVuSans-20" x="406.005859"/>
       <use xlink:href="#DejaVuSans-57" x="437.792969"/>
       <use xlink:href="#DejaVuSans-4c" x="536.669922"/>
      </g>
     </g>
    </g>
    <g id="xtick_7">
     <g id="line2d_7">
      <g>
       <use xlink:href="#m7fb34a4a3c" x="522.952232" y="461.359219" style="stroke: #000000; stroke-width: 0.8"/>
      </g>
     </g>
     <g id="text_7">
      <!-- Sonar -->
      <g transform="translate(525.159732 491.594219) rotate(-90) scale(0.08 -0.08)">
       <use xlink:href="#DejaVuSans-53"/>
       <use xlink:href="#DejaVuSans-6f" x="63.476562"/>
       <use xlink:href="#DejaVuSans-6e" x="124.658203"/>
       <use xlink:href="#DejaVuSans-61" x="188.037109"/>
       <use xlink:href="#DejaVuSans-72" x="249.316406"/>
      </g>
     </g>
    </g>
    <g id="text_8">
     <!--   -->
     <g transform="translate(348.544688 601.137031) scale(0.14 -0.14)">
      <use xlink:href="#DejaVuSans-20"/>
     </g>
    </g>
   </g>
   <g id="matplotlib.axis_2">
    <g id="ytick_1">
     <g id="line2d_8">
      <defs>
       <path id="m2e55b7f354" d="M 0 0 
L -3.5 0 
" style="stroke: #000000; stroke-width: 0.8"/>
      </defs>
      <g>
       <use xlink:href="#m2e55b7f354" x="149.889375" y="88.296362" style="stroke: #000000; stroke-width: 0.8"/>
      </g>
     </g>
     <g id="text_9">
      <!-- Sonar-Reasoning-Pro + WL -->
      <g transform="translate(36.020625 90.503862) scale(0.08 -0.08)">
       <use xlink:href="#DejaVuSans-53"/>
       <use xlink:href="#DejaVuSans-6f" x="63.476562"/>
       <use xlink:href="#DejaVuSans-6e" x="124.658203"/>
       <use xlink:href="#DejaVuSans-61" x="188.037109"/>
       <use xlink:href="#DejaVuSans-72" x="249.316406"/>
       <use xlink:href="#DejaVuSans-2d" x="284.054688"/>
       <use xlink:href="#DejaVuSans-52" x="320.138672"/>
       <use xlink:href="#DejaVuSans-65" x="385.121094"/>
       <use xlink:href="#DejaVuSans-61" x="446.644531"/>
       <use xlink:href="#DejaVuSans-73" x="507.923828"/>
       <use xlink:href="#DejaVuSans-6f" x="560.023438"/>
       <use xlink:href="#DejaVuSans-6e" x="621.205078"/>
       <use xlink:href="#DejaVuSans-69" x="684.583984"/>
       <use xlink:href="#DejaVuSans-6e" x="712.367188"/>
       <use xlink:href="#DejaVuSans-67" x="775.746094"/>
       <use xlink:href="#DejaVuSans-2d" x="839.222656"/>
       <use xlink:href="#DejaVuSans-50" x="875.306641"/>
       <use xlink:href="#DejaVuSans-72" x="933.859375"/>
       <use xlink:href="#DejaVuSans-6f" x="972.722656"/>
       <use xlink:href="#DejaVuSans-20" x="1033.904297"/>
       <use xlink:href="#DejaVuSans-2b" x="1065.691406"/>
       <use xlink:href="#DejaVuSans-20" x="1149.480469"/>
       <use xlink:href="#DejaVuSans-57" x="1181.267578"/>
       <use xlink:href="#DejaVuSans-4c" x="1280.144531"/>
      </g>
     </g>
    </g>
    <g id="ytick_2">
     <g id="line2d_9">
      <g>
       <use xlink:href="#m2e55b7f354" x="149.889375" y="145.690647" style="stroke: #000000; stroke-width: 0.8"/>
      </g>
     </g>
     <g id="text_10">
      <!-- Sonar-Pro + WL -->
      <g transform="translate(80.434375 147.898147) scale(0.08 -0.08)">
       <use xlink:href="#DejaVuSans-53"/>
       <use xlink:href="#DejaVuSans-6f" x="63.476562"/>
       <use xlink:href="#DejaVuSans-6e" x="124.658203"/>
       <use xlink:href="#DejaVuSans-61" x="188.037109"/>
       <use xlink:href="#DejaVuSans-72" x="249.316406"/>
       <use xlink:href="#DejaVuSans-2d" x="284.054688"/>
       <use xlink:href="#DejaVuSans-50" x="320.138672"/>
       <use xlink:href="#DejaVuSans-72" x="378.691406"/>
       <use xlink:href="#DejaVuSans-6f" x="417.554688"/>
       <use xlink:href="#DejaVuSans-20" x="478.736328"/>
       <use xlink:href="#DejaVuSans-2b" x="510.523438"/>
       <use xlink:href="#DejaVuSans-20" x="594.3125"/>
       <use xlink:href="#DejaVuSans-57" x="626.099609"/>
       <use xlink:href="#DejaVuSans-4c" x="724.976562"/>
      </g>
     </g>
    </g>
    <g id="ytick_3">
     <g id="line2d_10">
      <g>
       <use xlink:href="#m2e55b7f354" x="149.889375" y="203.084933" style="stroke: #000000; stroke-width: 0.8"/>
      </g>
     </g>
     <g id="text_11">
      <!-- OpenEvidence (Assumed WL) -->
      <g transform="translate(24.749375 205.292433) scale(0.08 -0.08)">
       <use xlink:href="#DejaVuSans-4f"/>
       <use xlink:href="#DejaVuSans-70" x="78.710938"/>
       <use xlink:href="#DejaVuSans-65" x="142.1875"/>
       <use xlink:href="#DejaVuSans-6e" x="203.710938"/>
       <use xlink:href="#DejaVuSans-45" x="267.089844"/>
       <use xlink:href="#DejaVuSans-76" x="330.273438"/>
       <use xlink:href="#DejaVuSans-69" x="389.453125"/>
       <use xlink:href="#DejaVuSans-64" x="417.236328"/>
       <use xlink:href="#DejaVuSans-65" x="480.712891"/>
       <use xlink:href="#DejaVuSans-6e" x="542.236328"/>
       <use xlink:href="#DejaVuSans-63" x="605.615234"/>
       <use xlink:href="#DejaVuSans-65" x="660.595703"/>
       <use xlink:href="#DejaVuSans-20" x="722.119141"/>
       <use xlink:href="#DejaVuSans-28" x="753.90625"/>
       <use xlink:href="#DejaVuSans-41" x="792.919922"/>
       <use xlink:href="#DejaVuSans-73" x="861.328125"/>
       <use xlink:href="#DejaVuSans-73" x="913.427734"/>
       <use xlink:href="#DejaVuSans-75" x="965.527344"/>
       <use xlink:href="#DejaVuSans-6d" x="1028.90625"/>
       <use xlink:href="#DejaVuSans-65" x="1126.318359"/>
       <use xlink:href="#DejaVuSans-64" x="1187.841797"/>
       <use xlink:href="#DejaVuSans-20" x="1251.318359"/>
       <use xlink:href="#DejaVuSans-57" x="1283.105469"/>
       <use xlink:href="#DejaVuSans-4c" x="1381.982422"/>
       <use xlink:href="#DejaVuSans-29" x="1437.695312"/>
      </g>
     </g>
    </g>
    <g id="ytick_4">
     <g id="line2d_11">
      <g>
       <use xlink:href="#m2e55b7f354" x="149.889375" y="260.479219" style="stroke: #000000; stroke-width: 0.8"/>
      </g>
     </g>
     <g id="text_12">
      <!-- Sonar-Pro -->
      <g transform="translate(104.590625 262.686719) scale(0.08 -0.08)">
       <use xlink:href="#DejaVuSans-53"/>
       <use xlink:href="#DejaVuSans-6f" x="63.476562"/>
       <use xlink:href="#DejaVuSans-6e" x="124.658203"/>
       <use xlink:href="#DejaVuSans-61" x="188.037109"/>
       <use xlink:href="#DejaVuSans-72" x="249.316406"/>
       <use xlink:href="#DejaVuSans-2d" x="284.054688"/>
       <use xlink:href="#DejaVuSans-50" x="320.138672"/>
       <use xlink:href="#DejaVuSans-72" x="378.691406"/>
       <use xlink:href="#DejaVuSans-6f" x="417.554688"/>
      </g>
     </g>
    </g>
    <g id="ytick_5">
     <g id="line2d_12">
      <g>
       <use xlink:href="#m2e55b7f354" x="149.889375" y="317.873504" style="stroke: #000000; stroke-width: 0.8"/>
      </g>
     </g>
     <g id="text_13">
      <!-- Sonar-Reasoning-Pro -->
      <g transform="translate(60.176875 320.081004) scale(0.08 -0.08)">
       <use xlink:href="#DejaVuSans-53"/>
       <use xlink:href="#DejaVuSans-6f" x="63.476562"/>
       <use xlink:href="#DejaVuSans-6e" x="124.658203"/>
       <use xlink:href="#DejaVuSans-61" x="188.037109"/>
       <use xlink:href="#DejaVuSans-72" x="249.316406"/>
       <use xlink:href="#DejaVuSans-2d" x="284.054688"/>
       <use xlink:href="#DejaVuSans-52" x="320.138672"/>
       <use xlink:href="#DejaVuSans-65" x="385.121094"/>
       <use xlink:href="#DejaVuSans-61" x="446.644531"/>
       <use xlink:href="#DejaVuSans-73" x="507.923828"/>
       <use xlink:href="#DejaVuSans-6f" x="560.023438"/>
       <use xlink:href="#DejaVuSans-6e" x="621.205078"/>
       <use xlink:href="#DejaVuSans-69" x="684.583984"/>
       <use xlink:href="#DejaVuSans-6e" x="712.367188"/>
       <use xlink:href="#DejaVuSans-67" x="775.746094"/>
       <use xlink:href="#DejaVuSans-2d" x="839.222656"/>
       <use xlink:href="#DejaVuSans-50" x="875.306641"/>
       <use xlink:href="#DejaVuSans-72" x="933.859375"/>
       <use xlink:href="#DejaVuSans-6f" x="972.722656"/>
      </g>
     </g>
    </g>
    <g id="ytick_6">
     <g id="line2d_13">
      <g>
       <use xlink:href="#m2e55b7f354" x="149.889375" y="375.26779" style="stroke: #000000; stroke-width: 0.8"/>
      </g>
     </g>
     <g id="text_14">
      <!-- Sonar + WL -->
      <g transform="translate(95.498125 377.47529) scale(0.08 -0.08)">
       <use xlink:href="#DejaVuSans-53"/>
       <use xlink:href="#DejaVuSans-6f" x="63.476562"/>
       <use xlink:href="#DejaVuSans-6e" x="124.658203"/>
       <use xlink:href="#DejaVuSans-61" x="188.037109"/>
       <use xlink:href="#DejaVuSans-72" x="249.316406"/>
       <use xlink:href="#DejaVuSans-20" x="290.429688"/>
       <use xlink:href="#DejaVuSans-2b" x="322.216797"/>
       <use xlink:href="#DejaVuSans-20" x="406.005859"/>
       <use xlink:href="#DejaVuSans-57" x="437.792969"/>
       <use xlink:href="#DejaVuSans-4c" x="536.669922"/>
      </g>
     </g>
    </g>
    <g id="ytick_7">
     <g id="line2d_14">
      <g>
       <use xlink:href="#m2e55b7f354" x="149.889375" y="432.662076" style="stroke: #000000; stroke-width: 0.8"/>
      </g>
     </g>
     <g id="text_15">
      <!-- Sonar -->
      <g transform="translate(119.654375 434.869576) scale(0.08 -0.08)">
       <use xlink:href="#DejaVuSans-53"/>
       <use xlink:href="#DejaVuSans-6f" x="63.476562"/>
       <use xlink:href="#DejaVuSans-6e" x="124.658203"/>
       <use xlink:href="#DejaVuSans-61" x="188.037109"/>
       <use xlink:href="#DejaVuSans-72" x="249.316406"/>
      </g>
     </g>
    </g>
    <g id="text_16">
     <!--   -->
     <g transform="translate(17.837812 262.703906) rotate(-90) scale(0.14 -0.14)">
      <use xlink:href="#DejaVuSans-20"/>
     </g>
    </g>
   </g>
   <g id="text_17">
    <!-- P&gt;.99 -->
    <g style="fill: #ffffff" transform="translate(163.430268 148.450022) scale(0.1 -0.1)">
     <defs>
      <path id="DejaVuSans-3e" d="M 678 3150 
L 678 3719 
L 4684 2266 
L 4684 1747 
L 678 294 
L 678 863 
L 3897 2003 
L 678 3150 
z
" transform="scale(0.015625)"/>
      <path id="DejaVuSans-2e" d="M 684 794 
L 1344 794 
L 1344 0 
L 684 0 
L 684 794 
z
" transform="scale(0.015625)"/>
      <path id="DejaVuSans-39" d="M 703 97 
L 703 672 
Q 941 559 1184 500 
Q 1428 441 1663 441 
Q 2288 441 2617 861 
Q 2947 1281 2994 2138 
Q 2813 1869 2534 1725 
Q 2256 1581 1919 1581 
Q 1219 1581 811 2004 
Q 403 2428 403 3163 
Q 403 3881 828 4315 
Q 1253 4750 1959 4750 
Q 2769 4750 3195 4129 
Q 3622 3509 3622 2328 
Q 3622 1225 3098 567 
Q 2575 -91 1691 -91 
Q 1453 -91 1209 -44 
Q 966 3 703 97 
z
M 1959 2075 
Q 2384 2075 2632 2365 
Q 2881 2656 2881 3163 
Q 2881 3666 2632 3958 
Q 2384 4250 1959 4250 
Q 1534 4250 1286 3958 
Q 1038 3666 1038 3163 
Q 1038 2656 1286 2365 
Q 1534 2075 1959 2075 
z
" transform="scale(0.015625)"/>
     </defs>
     <use xlink:href="#DejaVuSans-50"/>
     <use xlink:href="#DejaVuSans-3e" x="60.302734"/>
     <use xlink:href="#DejaVuSans-2e" x="144.091797"/>
     <use xlink:href="#DejaVuSans-39" x="175.878906"/>
     <use xlink:href="#DejaVuSans-39" x="239.501953"/>
    </g>
   </g>
   <g id="text_18">
    <!-- P=0.71 -->
    <g style="fill: #ffffff" transform="translate(160.249018 205.844308) scale(0.1 -0.1)">
     <defs>
      <path id="DejaVuSans-3d" d="M 678 2906 
L 4684 2906 
L 4684 2381 
L 678 2381 
L 678 2906 
z
M 678 1631 
L 4684 1631 
L 4684 1100 
L 678 1100 
L 678 1631 
z
" transform="scale(0.015625)"/>
      <path id="DejaVuSans-30" d="M 2034 4250 
Q 1547 4250 1301 3770 
Q 1056 3291 1056 2328 
Q 1056 1369 1301 889 
Q 1547 409 2034 409 
Q 2525 409 2770 889 
Q 3016 1369 3016 2328 
Q 3016 3291 2770 3770 
Q 2525 4250 2034 4250 
z
M 2034 4750 
Q 2819 4750 3233 4129 
Q 3647 3509 3647 2328 
Q 3647 1150 3233 529 
Q 2819 -91 2034 -91 
Q 1250 -91 836 529 
Q 422 1150 422 2328 
Q 422 3509 836 4129 
Q 1250 4750 2034 4750 
z
" transform="scale(0.015625)"/>
      <path id="DejaVuSans-37" d="M 525 4666 
L 3525 4666 
L 3525 4397 
L 1831 0 
L 1172 0 
L 2766 4134 
L 525 4134 
L 525 4666 
z
" transform="scale(0.015625)"/>
      <path id="DejaVuSans-31" d="M 794 531 
L 1825 531 
L 1825 4091 
L 703 3866 
L 703 4441 
L 1819 4666 
L 2450 4666 
L 2450 531 
L 3481 531 
L 3481 0 
L 794 0 
L 794 531 
z
" transform="scale(0.015625)"/>
     </defs>
     <use xlink:href="#DejaVuSans-50"/>
     <use xlink:href="#DejaVuSans-3d" x="60.302734"/>
     <use xlink:href="#DejaVuSans-30" x="144.091797"/>
     <use xlink:href="#DejaVuSans-2e" x="207.714844"/>
     <use xlink:href="#DejaVuSans-37" x="239.501953"/>
     <use xlink:href="#DejaVuSans-31" x="303.125"/>
    </g>
   </g>
   <g id="text_19">
    <!-- P&gt;.99 -->
    <g style="fill: #ffffff" transform="translate(220.824554 205.844308) scale(0.1 -0.1)">
     <use xlink:href="#DejaVuSans-50"/>
     <use xlink:href="#DejaVuSans-3e" x="60.302734"/>
     <use xlink:href="#DejaVuSans-2e" x="144.091797"/>
     <use xlink:href="#DejaVuSans-39" x="175.878906"/>
     <use xlink:href="#DejaVuSans-39" x="239.501953"/>
    </g>
   </g>
   <g id="text_20">
    <!-- P=0.38 -->
    <g style="fill: #ffffff" transform="translate(160.249018 263.238594) scale(0.1 -0.1)">
     <defs>
      <path id="DejaVuSans-33" d="M 2597 2516 
Q 3050 2419 3304 2112 
Q 3559 1806 3559 1356 
Q 3559 666 3084 287 
Q 2609 -91 1734 -91 
Q 1441 -91 1130 -33 
Q 819 25 488 141 
L 488 750 
Q 750 597 1062 519 
Q 1375 441 1716 441 
Q 2309 441 2620 675 
Q 2931 909 2931 1356 
Q 2931 1769 2642 2001 
Q 2353 2234 1838 2234 
L 1294 2234 
L 1294 2753 
L 1863 2753 
Q 2328 2753 2575 2939 
Q 2822 3125 2822 3475 
Q 2822 3834 2567 4026 
Q 2313 4219 1838 4219 
Q 1578 4219 1281 4162 
Q 984 4106 628 3988 
L 628 4550 
Q 988 4650 1302 4700 
Q 1616 4750 1894 4750 
Q 2613 4750 3031 4423 
Q 3450 4097 3450 3541 
Q 3450 3153 3228 2886 
Q 3006 2619 2597 2516 
z
" transform="scale(0.015625)"/>
      <path id="DejaVuSans-38" d="M 2034 2216 
Q 1584 2216 1326 1975 
Q 1069 1734 1069 1313 
Q 1069 891 1326 650 
Q 1584 409 2034 409 
Q 2484 409 2743 651 
Q 3003 894 3003 1313 
Q 3003 1734 2745 1975 
Q 2488 2216 2034 2216 
z
M 1403 2484 
Q 997 2584 770 2862 
Q 544 3141 544 3541 
Q 544 4100 942 4425 
Q 1341 4750 2034 4750 
Q 2731 4750 3128 4425 
Q 3525 4100 3525 3541 
Q 3525 3141 3298 2862 
Q 3072 2584 2669 2484 
Q 3125 2378 3379 2068 
Q 3634 1759 3634 1313 
Q 3634 634 3220 271 
Q 2806 -91 2034 -91 
Q 1263 -91 848 271 
Q 434 634 434 1313 
Q 434 1759 690 2068 
Q 947 2378 1403 2484 
z
M 1172 3481 
Q 1172 3119 1398 2916 
Q 1625 2713 2034 2713 
Q 2441 2713 2670 2916 
Q 2900 3119 2900 3481 
Q 2900 3844 2670 4047 
Q 2441 4250 2034 4250 
Q 1625 4250 1398 4047 
Q 1172 3844 1172 3481 
z
" transform="scale(0.015625)"/>
     </defs>
     <use xlink:href="#DejaVuSans-50"/>
     <use xlink:href="#DejaVuSans-3d" x="60.302734"/>
     <use xlink:href="#DejaVuSans-30" x="144.091797"/>
     <use xlink:href="#DejaVuSans-2e" x="207.714844"/>
     <use xlink:href="#DejaVuSans-33" x="239.501953"/>
     <use xlink:href="#DejaVuSans-38" x="303.125"/>
    </g>
   </g>
   <g id="text_21">
    <!-- P&gt;.99 -->
    <g style="fill: #ffffff" transform="translate(220.824554 263.238594) scale(0.1 -0.1)">
     <use xlink:href="#DejaVuSans-50"/>
     <use xlink:href="#DejaVuSans-3e" x="60.302734"/>
     <use xlink:href="#DejaVuSans-2e" x="144.091797"/>
     <use xlink:href="#DejaVuSans-39" x="175.878906"/>
     <use xlink:href="#DejaVuSans-39" x="239.501953"/>
    </g>
   </g>
   <g id="text_22">
    <!-- P&gt;.99 -->
    <g style="fill: #ffffff" transform="translate(278.218839 263.238594) scale(0.1 -0.1)">
     <use xlink:href="#DejaVuSans-50"/>
     <use xlink:href="#DejaVuSans-3e" x="60.302734"/>
     <use xlink:href="#DejaVuSans-2e" x="144.091797"/>
     <use xlink:href="#DejaVuSans-39" x="175.878906"/>
     <use xlink:href="#DejaVuSans-39" x="239.501953"/>
    </g>
   </g>
   <g id="text_23">
    <!-- P=0.17 -->
    <g style="fill: #ffffff" transform="translate(160.249018 320.632879) scale(0.1 -0.1)">
     <use xlink:href="#DejaVuSans-50"/>
     <use xlink:href="#DejaVuSans-3d" x="60.302734"/>
     <use xlink:href="#DejaVuSans-30" x="144.091797"/>
     <use xlink:href="#DejaVuSans-2e" x="207.714844"/>
     <use xlink:href="#DejaVuSans-31" x="239.501953"/>
     <use xlink:href="#DejaVuSans-37" x="303.125"/>
    </g>
   </g>
   <g id="text_24">
    <!-- P&gt;.99 -->
    <g style="fill: #ffffff" transform="translate(220.824554 320.632879) scale(0.1 -0.1)">
     <use xlink:href="#DejaVuSans-50"/>
     <use xlink:href="#DejaVuSans-3e" x="60.302734"/>
     <use xlink:href="#DejaVuSans-2e" x="144.091797"/>
     <use xlink:href="#DejaVuSans-39" x="175.878906"/>
     <use xlink:href="#DejaVuSans-39" x="239.501953"/>
    </g>
   </g>
   <g id="text_25">
    <!-- P&gt;.99 -->
    <g style="fill: #ffffff" transform="translate(278.218839 320.632879) scale(0.1 -0.1)">
     <use xlink:href="#DejaVuSans-50"/>
     <use xlink:href="#DejaVuSans-3e" x="60.302734"/>
     <use xlink:href="#DejaVuSans-2e" x="144.091797"/>
     <use xlink:href="#DejaVuSans-39" x="175.878906"/>
     <use xlink:href="#DejaVuSans-39" x="239.501953"/>
    </g>
   </g>
   <g id="text_26">
    <!-- P&gt;.99 -->
    <g style="fill: #ffffff" transform="translate(335.613125 320.632879) scale(0.1 -0.1)">
     <use xlink:href="#DejaVuSans-50"/>
     <use xlink:href="#DejaVuSans-3e" x="60.302734"/>
     <use xlink:href="#DejaVuSans-2e" x="144.091797"/>
     <use xlink:href="#DejaVuSans-39" x="175.878906"/>
     <use xlink:href="#DejaVuSans-39" x="239.501953"/>
    </g>
   </g>
   <g id="text_27">
    <!-- P=0.009 -->
    <g style="fill: #ffffff" transform="translate(157.067768 378.027165) scale(0.1 -0.1)">
     <use xlink:href="#DejaVuSans-50"/>
     <use xlink:href="#DejaVuSans-3d" x="60.302734"/>
     <use xlink:href="#DejaVuSans-30" x="144.091797"/>
     <use xlink:href="#DejaVuSans-2e" x="207.714844"/>
     <use xlink:href="#DejaVuSans-30" x="239.501953"/>
     <use xlink:href="#DejaVuSans-30" x="303.125"/>
     <use xlink:href="#DejaVuSans-39" x="366.748047"/>
    </g>
   </g>
   <g id="text_28">
    <!-- P=0.07 -->
    <g style="fill: #ffffff" transform="translate(217.643304 378.027165) scale(0.1 -0.1)">
     <use xlink:href="#DejaVuSans-50"/>
     <use xlink:href="#DejaVuSans-3d" x="60.302734"/>
     <use xlink:href="#DejaVuSans-30" x="144.091797"/>
     <use xlink:href="#DejaVuSans-2e" x="207.714844"/>
     <use xlink:href="#DejaVuSans-30" x="239.501953"/>
     <use xlink:href="#DejaVuSans-37" x="303.125"/>
    </g>
   </g>
   <g id="text_29">
    <!-- P&gt;.99 -->
    <g style="fill: #ffffff" transform="translate(278.218839 378.027165) scale(0.1 -0.1)">
     <use xlink:href="#DejaVuSans-50"/>
     <use xlink:href="#DejaVuSans-3e" x="60.302734"/>
     <use xlink:href="#DejaVuSans-2e" x="144.091797"/>
     <use xlink:href="#DejaVuSans-39" x="175.878906"/>
     <use xlink:href="#DejaVuSans-39" x="239.501953"/>
    </g>
   </g>
   <g id="text_30">
    <!-- P&gt;.99 -->
    <g style="fill: #ffffff" transform="translate(335.613125 378.027165) scale(0.1 -0.1)">
     <use xlink:href="#DejaVuSans-50"/>
     <use xlink:href="#DejaVuSans-3e" x="60.302734"/>
     <use xlink:href="#DejaVuSans-2e" x="144.091797"/>
     <use xlink:href="#DejaVuSans-39" x="175.878906"/>
     <use xlink:href="#DejaVuSans-39" x="239.501953"/>
    </g>
   </g>
   <g id="text_31">
    <!-- P&gt;.99 -->
    <g style="fill: #ffffff" transform="translate(393.007411 378.027165) scale(0.1 -0.1)">
     <use xlink:href="#DejaVuSans-50"/>
     <use xlink:href="#DejaVuSans-3e" x="60.302734"/>
     <use xlink:href="#DejaVuSans-2e" x="144.091797"/>
     <use xlink:href="#DejaVuSans-39" x="175.878906"/>
     <use xlink:href="#DejaVuSans-39" x="239.501953"/>
    </g>
   </g>
   <g id="text_32">
    <!-- P&lt;.001 -->
    <g style="fill: #ffffff" transform="translate(160.249018 435.421451) scale(0.1 -0.1)">
     <defs>
      <path id="DejaVuSans-3c" d="M 4684 3150 
L 1459 2003 
L 4684 863 
L 4684 294 
L 678 1747 
L 678 2266 
L 4684 3719 
L 4684 3150 
z
" transform="scale(0.015625)"/>
     </defs>
     <use xlink:href="#DejaVuSans-50"/>
     <use xlink:href="#DejaVuSans-3c" x="60.302734"/>
     <use xlink:href="#DejaVuSans-2e" x="144.091797"/>
     <use xlink:href="#DejaVuSans-30" x="175.878906"/>
     <use xlink:href="#DejaVuSans-30" x="239.501953"/>
     <use xlink:href="#DejaVuSans-31" x="303.125"/>
    </g>
   </g>
   <g id="text_33">
    <!-- P&lt;.001 -->
    <g style="fill: #ffffff" transform="translate(217.643304 435.421451) scale(0.1 -0.1)">
     <use xlink:href="#DejaVuSans-50"/>
     <use xlink:href="#DejaVuSans-3c" x="60.302734"/>
     <use xlink:href="#DejaVuSans-2e" x="144.091797"/>
     <use xlink:href="#DejaVuSans-30" x="175.878906"/>
     <use xlink:href="#DejaVuSans-30" x="239.501953"/>
     <use xlink:href="#DejaVuSans-31" x="303.125"/>
    </g>
   </g>
   <g id="text_34">
    <!-- P&lt;.001 -->
    <g style="fill: #ffffff" transform="translate(275.037589 435.421451) scale(0.1 -0.1)">
     <use xlink:href="#DejaVuSans-50"/>
     <use xlink:href="#DejaVuSans-3c" x="60.302734"/>
     <use xlink:href="#DejaVuSans-2e" x="144.091797"/>
     <use xlink:href="#DejaVuSans-30" x="175.878906"/>
     <use xlink:href="#DejaVuSans-30" x="239.501953"/>
     <use xlink:href="#DejaVuSans-31" x="303.125"/>
    </g>
   </g>
   <g id="text_35">
    <!-- P&lt;.001 -->
    <g style="fill: #ffffff" transform="translate(332.431875 435.421451) scale(0.1 -0.1)">
     <use xlink:href="#DejaVuSans-50"/>
     <use xlink:href="#DejaVuSans-3c" x="60.302734"/>
     <use xlink:href="#DejaVuSans-2e" x="144.091797"/>
     <use xlink:href="#DejaVuSans-30" x="175.878906"/>
     <use xlink:href="#DejaVuSans-30" x="239.501953"/>
     <use xlink:href="#DejaVuSans-31" x="303.125"/>
    </g>
   </g>
   <g id="text_36">
    <!-- P&lt;.001 -->
    <g style="fill: #ffffff" transform="translate(389.826161 435.421451) scale(0.1 -0.1)">
     <use xlink:href="#DejaVuSans-50"/>
     <use xlink:href="#DejaVuSans-3c" x="60.302734"/>
     <use xlink:href="#DejaVuSans-2e" x="144.091797"/>
     <use xlink:href="#DejaVuSans-30" x="175.878906"/>
     <use xlink:href="#DejaVuSans-30" x="239.501953"/>
     <use xlink:href="#DejaVuSans-31" x="303.125"/>
    </g>
   </g>
   <g id="text_37">
    <!-- P=0.007 -->
    <g style="fill: #ffffff" transform="translate(444.039196 435.421451) scale(0.1 -0.1)">
     <use xlink:href="#DejaVuSans-50"/>
     <use xlink:href="#DejaVuSans-3d" x="60.302734"/>
     <use xlink:href="#DejaVuSans-30" x="144.091797"/>
     <use xlink:href="#DejaVuSans-2e" x="207.714844"/>
     <use xlink:href="#DejaVuSans-30" x="239.501953"/>
     <use xlink:href="#DejaVuSans-30" x="303.125"/>
     <use xlink:href="#DejaVuSans-37" x="366.748047"/>
    </g>
   </g>
   <g id="text_38">
    <!-- Heatmap of Corrected P-Values Between Models -->
    <g transform="translate(158.005625 53.599219) scale(0.16 -0.16)">
     <defs>
      <path id="DejaVuSans-48" d="M 628 4666 
L 1259 4666 
L 1259 2753 
L 3553 2753 
L 3553 4666 
L 4184 4666 
L 4184 0 
L 3553 0 
L 3553 2222 
L 1259 2222 
L 1259 0 
L 628 0 
L 628 4666 
z
" transform="scale(0.015625)"/>
      <path id="DejaVuSans-74" d="M 1172 4494 
L 1172 3500 
L 2356 3500 
L 2356 3053 
L 1172 3053 
L 1172 1153 
Q 1172 725 1289 603 
Q 1406 481 1766 481 
L 2356 481 
L 2356 0 
L 1766 0 
Q 1100 0 847 248 
Q 594 497 594 1153 
L 594 3053 
L 172 3053 
L 172 3500 
L 594 3500 
L 594 4494 
L 1172 4494 
z
" transform="scale(0.015625)"/>
      <path id="DejaVuSans-66" d="M 2375 4863 
L 2375 4384 
L 1825 4384 
Q 1516 4384 1395 4259 
Q 1275 4134 1275 3809 
L 1275 3500 
L 2222 3500 
L 2222 3053 
L 1275 3053 
L 1275 0 
L 697 0 
L 697 3053 
L 147 3053 
L 147 3500 
L 697 3500 
L 697 3744 
Q 697 4328 969 4595 
Q 1241 4863 1831 4863 
L 2375 4863 
z
" transform="scale(0.015625)"/>
      <path id="DejaVuSans-43" d="M 4122 4306 
L 4122 3641 
Q 3803 3938 3442 4084 
Q 3081 4231 2675 4231 
Q 1875 4231 1450 3742 
Q 1025 3253 1025 2328 
Q 1025 1406 1450 917 
Q 1875 428 2675 428 
Q 3081 428 3442 575 
Q 3803 722 4122 1019 
L 4122 359 
Q 3791 134 3420 21 
Q 3050 -91 2638 -91 
Q 1578 -91 968 557 
Q 359 1206 359 2328 
Q 359 3453 968 4101 
Q 1578 4750 2638 4750 
Q 3056 4750 3426 4639 
Q 3797 4528 4122 4306 
z
" transform="scale(0.015625)"/>
      <path id="DejaVuSans-56" d="M 1831 0 
L 50 4666 
L 709 4666 
L 2188 738 
L 3669 4666 
L 4325 4666 
L 2547 0 
L 1831 0 
z
" transform="scale(0.015625)"/>
      <path id="DejaVuSans-6c" d="M 603 4863 
L 1178 4863 
L 1178 0 
L 603 0 
L 603 4863 
z
" transform="scale(0.015625)"/>
      <path id="DejaVuSans-42" d="M 1259 2228 
L 1259 519 
L 2272 519 
Q 2781 519 3026 730 
Q 3272 941 3272 1375 
Q 3272 1813 3026 2020 
Q 2781 2228 2272 2228 
L 1259 2228 
z
M 1259 4147 
L 1259 2741 
L 2194 2741 
Q 2656 2741 2882 2914 
Q 3109 3088 3109 3444 
Q 3109 3797 2882 3972 
Q 2656 4147 2194 4147 
L 1259 4147 
z
M 628 4666 
L 2241 4666 
Q 2963 4666 3353 4366 
Q 3744 4066 3744 3513 
Q 3744 3084 3544 2831 
Q 3344 2578 2956 2516 
Q 3422 2416 3680 2098 
Q 3938 1781 3938 1306 
Q 3938 681 3513 340 
Q 3088 0 2303 0 
L 628 0 
L 628 4666 
z
" transform="scale(0.015625)"/>
      <path id="DejaVuSans-77" d="M 269 3500 
L 844 3500 
L 1563 769 
L 2278 3500 
L 2956 3500 
L 3675 769 
L 4391 3500 
L 4966 3500 
L 4050 0 
L 3372 0 
L 2619 2869 
L 1863 0 
L 1184 0 
L 269 3500 
z
" transform="scale(0.015625)"/>
      <path id="DejaVuSans-4d" d="M 628 4666 
L 1569 4666 
L 2759 1491 
L 3956 4666 
L 4897 4666 
L 4897 0 
L 4281 0 
L 4281 4097 
L 3078 897 
L 2444 897 
L 1241 4097 
L 1241 0 
L 628 0 
L 628 4666 
z
" transform="scale(0.015625)"/>
     </defs>
     <use xlink:href="#DejaVuSans-48"/>
     <use xlink:href="#DejaVuSans-65" x="75.195312"/>
     <use xlink:href="#DejaVuSans-61" x="136.71875"/>
     <use xlink:href="#DejaVuSans-74" x="197.998047"/>
     <use xlink:href="#DejaVuSans-6d" x="237.207031"/>
     <use xlink:href="#DejaVuSans-61" x="334.619141"/>
     <use xlink:href="#DejaVuSans-70" x="395.898438"/>
     <use xlink:href="#DejaVuSans-20" x="459.375"/>
     <use xlink:href="#DejaVuSans-6f" x="491.162109"/>
     <use xlink:href="#DejaVuSans-66" x="552.34375"/>
     <use xlink:href="#DejaVuSans-20" x="587.548828"/>
     <use xlink:href="#DejaVuSans-43" x="619.335938"/>
     <use xlink:href="#DejaVuSans-6f" x="689.160156"/>
     <use xlink:href="#DejaVuSans-72" x="750.341797"/>
     <use xlink:href="#DejaVuSans-72" x="789.705078"/>
     <use xlink:href="#DejaVuSans-65" x="828.568359"/>
     <use xlink:href="#DejaVuSans-63" x="890.091797"/>
     <use xlink:href="#DejaVuSans-74" x="945.072266"/>
     <use xlink:href="#DejaVuSans-65" x="984.28125"/>
     <use xlink:href="#DejaVuSans-64" x="1045.804688"/>
     <use xlink:href="#DejaVuSans-20" x="1109.28125"/>
     <use xlink:href="#DejaVuSans-50" x="1141.068359"/>
     <use xlink:href="#DejaVuSans-2d" x="1199.121094"/>
     <use xlink:href="#DejaVuSans-56" x="1229.330078"/>
     <use xlink:href="#DejaVuSans-61" x="1289.988281"/>
     <use xlink:href="#DejaVuSans-6c" x="1351.267578"/>
     <use xlink:href="#DejaVuSans-75" x="1379.050781"/>
     <use xlink:href="#DejaVuSans-65" x="1442.429688"/>
     <use xlink:href="#DejaVuSans-73" x="1503.953125"/>
     <use xlink:href="#DejaVuSans-20" x="1556.052734"/>
     <use xlink:href="#DejaVuSans-42" x="1587.839844"/>
     <use xlink:href="#DejaVuSans-65" x="1656.443359"/>
     <use xlink:href="#DejaVuSans-74" x="1717.966797"/>
     <use xlink:href="#DejaVuSans-77" x="1757.175781"/>
     <use xlink:href="#DejaVuSans-65" x="1838.962891"/>
     <use xlink:href="#DejaVuSans-65" x="1900.486328"/>
     <use xlink:href="#DejaVuSans-6e" x="1962.009766"/>
     <use xlink:href="#DejaVuSans-20" x="2025.388672"/>
     <use xlink:href="#DejaVuSans-4d" x="2057.175781"/>
     <use xlink:href="#DejaVuSans-6f" x="2143.455078"/>
     <use xlink:href="#DejaVuSans-64" x="2204.636719"/>
     <use xlink:href="#DejaVuSans-65" x="2268.113281"/>
     <use xlink:href="#DejaVuSans-6c" x="2329.636719"/>
     <use xlink:href="#DejaVuSans-73" x="2357.419922"/>
    </g>
   </g>
  </g>
  <g id="axes_2">
   <g id="patch_3">
    <path d="M 576.759375 509.959219 
L 601.707375 509.959219 
L 601.707375 10.999219 
L 576.759375 10.999219 
z
" style="fill: #ffffff"/>
   </g>
   <g id="QuadMesh_2">
    <path d="M 576.759375 509.959219 
L 601.707375 509.959219 
L 601.707375 385.219219 
L 576.759375 385.219219 
L 576.759375 509.959219 
" clip-path="url(#p1fca3930bc)" style="fill: #d73027"/>
    <path d="M 576.759375 385.219219 
L 601.707375 385.219219 
L 601.707375 260.479219 
L 576.759375 260.479219 
L 576.759375 385.219219 
" clip-path="url(#p1fca3930bc)" style="fill: #fc8d59"/>
    <path d="M 576.759375 260.479219 
L 601.707375 260.479219 
L 601.707375 135.739219 
L 576.759375 135.739219 
L 576.759375 260.479219 
" clip-path="url(#p1fca3930bc)" style="fill: #fee08b"/>
    <path d="M 576.759375 135.739219 
L 601.707375 135.739219 
L 601.707375 10.999219 
L 576.759375 10.999219 
L 576.759375 135.739219 
" clip-path="url(#p1fca3930bc)" style="fill: #4575b4"/>
   </g>
   <g id="matplotlib.axis_3"/>
   <g id="matplotlib.axis_4">
    <g id="ytick_8">
     <g id="line2d_15">
      <defs>
       <path id="mead1866aa9" d="M 0 0 
L 3.5 0 
" style="stroke: #000000; stroke-width: 0.8"/>
      </defs>
      <g>
       <use xlink:href="#mead1866aa9" x="601.707375" y="509.959219" style="stroke: #000000; stroke-width: 0.8"/>
      </g>
     </g>
     <g id="text_39">
      <!-- 0.000 -->
      <g transform="translate(608.707375 513.758438) scale(0.1 -0.1)">
       <use xlink:href="#DejaVuSans-30"/>
       <use xlink:href="#DejaVuSans-2e" x="63.623047"/>
       <use xlink:href="#DejaVuSans-30" x="95.410156"/>
       <use xlink:href="#DejaVuSans-30" x="159.033203"/>
       <use xlink:href="#DejaVuSans-30" x="222.65625"/>
      </g>
     </g>
    </g>
    <g id="ytick_9">
     <g id="line2d_16">
      <g>
       <use xlink:href="#mead1866aa9" x="601.707375" y="385.219219" style="stroke: #000000; stroke-width: 0.8"/>
      </g>
     </g>
     <g id="text_40">
      <!-- 0.001 -->
      <g transform="translate(608.707375 389.018438) scale(0.1 -0.1)">
       <use xlink:href="#DejaVuSans-30"/>
       <use xlink:href="#DejaVuSans-2e" x="63.623047"/>
       <use xlink:href="#DejaVuSans-30" x="95.410156"/>
       <use xlink:href="#DejaVuSans-30" x="159.033203"/>
       <use xlink:href="#DejaVuSans-31" x="222.65625"/>
      </g>
     </g>
    </g>
    <g id="ytick_10">
     <g id="line2d_17">
      <g>
       <use xlink:href="#mead1866aa9" x="601.707375" y="260.479219" style="stroke: #000000; stroke-width: 0.8"/>
      </g>
     </g>
     <g id="text_41">
      <!-- 0.010 -->
      <g transform="translate(608.707375 264.278438) scale(0.1 -0.1)">
       <use xlink:href="#DejaVuSans-30"/>
       <use xlink:href="#DejaVuSans-2e" x="63.623047"/>
       <use xlink:href="#DejaVuSans-30" x="95.410156"/>
       <use xlink:href="#DejaVuSans-31" x="159.033203"/>
       <use xlink:href="#DejaVuSans-30" x="222.65625"/>
      </g>
     </g>
    </g>
    <g id="ytick_11">
     <g id="line2d_18">
      <g>
       <use xlink:href="#mead1866aa9" x="601.707375" y="135.739219" style="stroke: #000000; stroke-width: 0.8"/>
      </g>
     </g>
     <g id="text_42">
      <!-- 0.050 -->
      <g transform="translate(608.707375 139.538438) scale(0.1 -0.1)">
       <defs>
        <path id="DejaVuSans-35" d="M 691 4666 
L 3169 4666 
L 3169 4134 
L 1269 4134 
L 1269 2991 
Q 1406 3038 1543 3061 
Q 1681 3084 1819 3084 
Q 2600 3084 3056 2656 
Q 3513 2228 3513 1497 
Q 3513 744 3044 326 
Q 2575 -91 1722 -91 
Q 1428 -91 1123 -41 
Q 819 9 494 109 
L 494 744 
Q 775 591 1075 516 
Q 1375 441 1709 441 
Q 2250 441 2565 725 
Q 2881 1009 2881 1497 
Q 2881 1984 2565 2268 
Q 2250 2553 1709 2553 
Q 1456 2553 1204 2497 
Q 953 2441 691 2322 
L 691 4666 
z
" transform="scale(0.015625)"/>
       </defs>
       <use xlink:href="#DejaVuSans-30"/>
       <use xlink:href="#DejaVuSans-2e" x="63.623047"/>
       <use xlink:href="#DejaVuSans-30" x="95.410156"/>
       <use xlink:href="#DejaVuSans-35" x="159.033203"/>
       <use xlink:href="#DejaVuSans-30" x="222.65625"/>
      </g>
     </g>
    </g>
    <g id="ytick_12">
     <g id="line2d_19">
      <g>
       <use xlink:href="#mead1866aa9" x="601.707375" y="10.999219" style="stroke: #000000; stroke-width: 0.8"/>
      </g>
     </g>
     <g id="text_43">
      <!-- 1.000 -->
      <g transform="translate(608.707375 14.798438) scale(0.1 -0.1)">
       <use xlink:href="#DejaVuSans-31"/>
       <use xlink:href="#DejaVuSans-2e" x="63.623047"/>
       <use xlink:href="#DejaVuSans-30" x="95.410156"/>
       <use xlink:href="#DejaVuSans-30" x="159.033203"/>
       <use xlink:href="#DejaVuSans-30" x="222.65625"/>
      </g>
     </g>
    </g>
    <g id="text_44">
     <!-- Corrected P-Value -->
     <g transform="translate(648.933938 304.710469) rotate(-90) scale(0.1 -0.1)">
      <use xlink:href="#DejaVuSans-43"/>
      <use xlink:href="#DejaVuSans-6f" x="69.824219"/>
      <use xlink:href="#DejaVuSans-72" x="131.005859"/>
      <use xlink:href="#DejaVuSans-72" x="170.369141"/>
      <use xlink:href="#DejaVuSans-65" x="209.232422"/>
      <use xlink:href="#DejaVuSans-63" x="270.755859"/>
      <use xlink:href="#DejaVuSans-74" x="325.736328"/>
      <use xlink:href="#DejaVuSans-65" x="364.945312"/>
      <use xlink:href="#DejaVuSans-64" x="426.46875"/>
      <use xlink:href="#DejaVuSans-20" x="489.945312"/>
      <use xlink:href="#DejaVuSans-50" x="521.732422"/>
      <use xlink:href="#DejaVuSans-2d" x="579.785156"/>
      <use xlink:href="#DejaVuSans-56" x="609.994141"/>
      <use xlink:href="#DejaVuSans-61" x="670.652344"/>
      <use xlink:href="#DejaVuSans-6c" x="731.931641"/>
      <use xlink:href="#DejaVuSans-75" x="759.714844"/>
      <use xlink:href="#DejaVuSans-65" x="823.09375"/>
     </g>
    </g>
   </g>
   <g id="LineCollection_1"/>
   <g id="patch_4">
    <path d="M 576.759375 509.959219 
L 589.233375 509.959219 
L 601.707375 509.959219 
L 601.707375 10.999219 
L 589.233375 10.999219 
L 576.759375 10.999219 
L 576.759375 509.959219 
z
" style="fill: none"/>
   </g>
  </g>
 </g>
 <defs>
  <clipPath id="pf5796e1ba5">
   <rect x="149.889375" y="59.599219" width="401.76" height="401.76"/>
  </clipPath>
  <clipPath id="p1fca3930bc">
   <rect x="576.759375" y="10.999219" width="24.948" height="498.96"/>
  </clipPath>
 </defs>
</svg>
